Land_normalized_pl10_filtered_grf
version=1
nRows=12
nColumns=37
inDegrees=yes
endheader
time		1_ground_force_vx		1_ground_force_vy		1_ground_force_vz		1_ground_force_px		1_ground_force_py		1_ground_force_pz		1_ground_torque_x		1_ground_torque_y		1_ground_torque_z		2_ground_force_vx		2_ground_force_vy		2_ground_force_vz		2_ground_force_px		2_ground_force_py		2_ground_force_pz		2_ground_torque_x		2_ground_torque_y		2_ground_torque_z		3_ground_force_vx		3_ground_force_vy		3_ground_force_vz		3_ground_force_px		3_ground_force_py		3_ground_force_pz		3_ground_torque_x		3_ground_torque_y		3_ground_torque_z		4_ground_force_vx		4_ground_force_vy		4_ground_force_vz		4_ground_force_px		4_ground_force_py		4_ground_force_pz		4_ground_torque_x		4_ground_torque_y		4_ground_torque_z		
0.870333		-60.880139		745.774881		421.385002		0.127437		0.000000		0.141947		-1.114187		13.648976		7.711958		68.649655		953.614419		325.621112		-0.194780		0.000000		0.219962		3.412546		47.400793		16.186489		0.234825		-0.505424		-1.438008		0.413437		1.262903		1.874090		0.037255		-0.013328		0.012158		-2.254850		-1.821233		-2.450411		-0.353235		1.256049		1.901513		0.027525		-0.027441		0.044032		
0.873162		-57.501611		771.722753		410.371804		0.127329		0.000000		0.145131		-1.118872		15.017053		7.985204		72.818328		932.811922		345.060175		-0.196880		0.000000		0.212894		3.904585		50.016933		18.502434		0.233181		-0.602196		-1.410808		0.413450		1.262901		1.874005		0.036280		-0.011933		0.012966		-2.244854		-1.801310		-2.387359		-0.353208		1.256040		1.901409		0.028044		-0.026532		0.043374		
0.875990		-53.300179		802.982999		396.682651		0.127314		0.000000		0.149388		-1.117330		16.833005		8.315665		75.127378		917.881870		355.925818		-0.198022		0.000000		0.207339		4.223286		51.598688		20.008369		0.240737		-0.689064		-1.387970		0.413463		1.262898		1.873921		0.035347		-0.010372		0.014008		-2.226122		-1.787946		-2.329544		-0.353184		1.256027		1.901302		0.028354		-0.025474		0.042274		
0.878818		-49.028426		836.145643		382.237423		0.127455		0.000000		0.153747		-1.102166		18.797765		8.592941		75.612030		909.350832		359.032393		-0.198074		0.000000		0.203520		4.347601		52.286570		20.643938		0.247876		-0.758665		-1.367362		0.413475		1.262893		1.873839		0.034476		-0.008565		0.015023		-2.202751		-1.782387		-2.275256		-0.353165		1.256009		1.901195		0.028523		-0.024535		0.040942		
0.881646		-45.273038		868.573711		368.403862		0.127748		0.000000		0.157613		-1.078348		20.689092		8.775032		74.583942		906.726301		356.059035		-0.197162		0.000000		0.201358		4.299347		52.267648		20.524805		0.246644		-0.805157		-1.346151		0.413488		1.262886		1.873760		0.033694		-0.006452		0.015738		-2.179311		-1.784557		-2.222167		-0.353151		1.255988		1.901088		0.028680		-0.023930		0.039640		
0.884475		-42.417025		898.544508		355.954754		0.128166		0.000000		0.160711		-1.055964		22.369216		8.861441		72.446259		908.940464		348.912496		-0.195550		0.000000		0.200577		4.122402		51.721284		19.854124		0.231985		-0.824511		-1.321564		0.413500		1.262876		1.873686		0.033036		-0.003992		0.015937		-2.159588		-1.793792		-2.168048		-0.353145		1.255963		1.900985		0.028971		-0.023813		0.038630		
0.887303		-40.650544		925.126803		345.161295		0.128682		0.000000		0.162976		-1.044227		23.764820		8.866468		69.620977		914.538360		339.485223		-0.193562		0.000000		0.200783		3.869188		50.824978		18.866849		0.202447		-0.815228		-1.291570		0.413511		1.262863		1.873617		0.032533		-0.001170		0.015493		-2.145743		-1.809451		-2.111371		-0.353144		1.255938		1.900884		0.029531		-0.024279		0.038136		
0.890131		-39.956031		948.130696		335.863926		0.129278		0.000000		0.164496		-1.047824		24.864228		8.807815		66.503265		921.876075		329.411196		-0.191489		0.000000		0.201542		3.589241		49.753971		17.778563		0.160943		-0.779557		-1.255622		0.413519		1.262847		1.873555		0.032186		0.001992		0.014396		-2.137475		-1.831269		-2.051942		-0.353150		1.255911		1.900789		0.030438		-0.025338		0.038288		
0.892960		-40.173813		967.804283		327.665414		0.129940		0.000000		0.165413		-1.066837		25.700550		8.701318		63.420265		929.433212		319.865267		-0.189538		0.000000		0.202484		3.320354		48.660084		16.746453		0.113895		-0.722671		-1.214524		0.413522		1.262828		1.873502		0.031973		0.005442		0.012720		-2.132123		-1.859467		-1.991031		-0.353161		1.255885		1.900698		0.031703		-0.026935		0.039120		
0.895788		-41.039201		984.660786		320.048268		0.130652		0.000000		0.165897		-1.097735		26.338150		8.560781		60.632103		935.915118		311.582024		-0.187832		0.000000		0.203327		3.087887		47.664075		15.868272		0.070351		-0.652423		-1.169819		0.413521		1.262808		1.873455		0.031847		0.009097		0.010609		-2.125077		-1.894074		-1.931325		-0.353175		1.255860		1.900614		0.033262		-0.028937		0.040557		
0.898616		-42.236755		999.330398		312.493866		0.131397		0.000000		0.166121		-1.134887		26.851644		8.396590		58.306221		940.404222		304.873951		-0.186418		0.000000		0.203895		2.904234		46.841369		15.185753		0.040100		-0.578175		-1.122803		0.413514		1.262787		1.873416		0.031753		0.012828		0.008265		-2.110873		-1.934075		-1.876461		-0.353191		1.255837		1.900536		0.034996		-0.031141		0.042426		
0.901444		-43.468502		1012.344240		304.581556		0.132157		0.000000		0.166236		-1.172466		27.305722		8.215403		56.511382		942.365465		299.770111		-0.185295		0.000000		0.204096		2.771913		46.223462		14.703871		0.032040		-0.508953		-1.073683		0.413500		1.262766		1.873383		0.031654		0.016472		0.005921		-2.084294		-1.977282		-1.830427		-0.353209		1.255817		1.900464		0.036755		-0.033320		0.044504		
